<?xml version="1.0" encoding="UTF-8"?>
<svg width="800px" height="400px" viewBox="0 0 800 400" version="1.1" xmlns="http://www.w3.org/2000/svg">
    <g stroke="none" fill="#13294E" fill-opacity="0.8">
        <!-- North America -->
        <circle cx="150" cy="120" r="3"/>
        <circle cx="170" cy="110" r="3"/>
        <circle cx="190" cy="120" r="3"/>
        <circle cx="210" cy="130" r="3"/>
        <circle cx="170" cy="140" r="3"/>
        <circle cx="190" cy="150" r="3"/>
        <circle cx="210" cy="160" r="3"/>
        <circle cx="230" cy="140" r="3"/>
        <circle cx="250" cy="150" r="3"/>
        <circle cx="180" cy="170" r="3"/>
        <circle cx="200" cy="180" r="3"/>
        
        <!-- South America -->
        <circle cx="230" cy="250" r="3"/>
        <circle cx="250" cy="260" r="3"/>
        <circle cx="240" cy="280" r="3"/>
        <circle cx="260" cy="290" r="3"/>
        <circle cx="230" cy="310" r="3"/>
        <circle cx="250" cy="320" r="3"/>
        
        <!-- Europe -->
        <circle cx="400" cy="120" r="3"/>
        <circle cx="420" cy="110" r="3"/>
        <circle cx="440" cy="120" r="3"/>
        <circle cx="410" cy="140" r="3"/>
        <circle cx="430" cy="130" r="3"/>
        <circle cx="450" cy="140" r="3"/>
        
        <!-- Africa -->
        <circle cx="420" cy="200" r="3"/>
        <circle cx="440" cy="210" r="3"/>
        <circle cx="410" cy="230" r="3"/>
        <circle cx="430" cy="240" r="3"/>
        <circle cx="450" cy="220" r="3"/>
        <circle cx="420" cy="250" r="3"/>
        <circle cx="440" cy="260" r="3"/>
        
        <!-- Asia -->
        <circle cx="500" cy="130" r="3"/>
        <circle cx="520" cy="140" r="3"/>
        <circle cx="540" cy="150" r="3"/>
        <circle cx="560" cy="140" r="3"/>
        <circle cx="580" cy="130" r="3"/>
        <circle cx="510" cy="160" r="3"/>
        <circle cx="530" cy="170" r="3"/>
        <circle cx="550" cy="180" r="3"/>
        <circle cx="570" cy="170" r="3"/>
        <circle cx="590" cy="160" r="3"/>
        <circle cx="520" cy="190" r="3"/>
        <circle cx="540" cy="200" r="3"/>
        <circle cx="560" cy="210" r="3"/>
        
        <!-- Australia -->
        <circle cx="650" cy="280" r="3"/>
        <circle cx="670" cy="290" r="3"/>
        <circle cx="640" cy="300" r="3"/>
        <circle cx="660" cy="310" r="3"/>
        <circle cx="680" cy="300" r="3"/>
    </g>
</svg>
