<svg xmlns="http://www.w3.org/2000/svg" xmlns:xlink="http://www.w3.org/1999/xlink" viewBox="0 0 544.1 469.42"><defs><style>.cls-1,.cls-4,.cls-5{fill:#ffa700;}.cls-1,.cls-9{stroke:#aec1db;}.cls-1,.cls-4,.cls-7,.cls-8,.cls-9{stroke-miterlimit:10;}.cls-1,.cls-4,.cls-9{stroke-width:3px;}.cls-2{fill:#aec1db;}.cls-3,.cls-7{fill:#0b274e;}.cls-4,.cls-7,.cls-8{stroke:#0b274e;}.cls-6{clip-path:url(#clip-path);}.cls-7,.cls-8{stroke-width:2px;}.cls-8{fill:#427faf;}.cls-13,.cls-9{fill:none;}.cls-10,.cls-15{fill:#fff;}.cls-10{opacity:0.5;}.cls-11{fill:#fba708;}.cls-12{fill:#062346;}.cls-14{fill:#437eb0;}</style><clipPath id="clip-path"><rect class="cls-1" x="193.36" y="30.32" width="165.34" height="230.43" rx="82.67"/></clipPath></defs><g id="Layer_2" data-name="Layer 2"><g id="Layer_1-2" data-name="Layer 1"><rect class="cls-2" x="171.6" width="208.85" height="291.06" rx="104.43"/><rect class="cls-3" x="179.24" y="10.65" width="193.57" height="269.77" rx="96.79"/><rect class="cls-4" x="192.01" y="28.44" width="168.04" height="234.19" rx="84.02"/><rect class="cls-5" x="193.36" y="30.32" width="165.34" height="230.43" rx="82.67"/><g class="cls-6"><polygon class="cls-7" points="201.44 193.26 206.8 194.6 206.8 190.75 211.15 190.75 212.49 193.93 221.03 181.87 224.38 181.87 235.6 165.46 249 178.02 256.7 166.97 259.72 169.31 263.91 158.09 266.75 158.09 278.48 143.69 300.58 166.63 304.27 165.8 311.3 177.02 322.86 169.15 348.65 201.8 343.29 231.11 287.19 264.1 210.15 247.52 195.91 195.61 201.44 193.26"/><path class="cls-8" d="M325.55,172.56l-5.2,2.95-1.51,4.19-2,2,1.17,3-6.36,5.36v2l6.95.84-6.12,4.69v2.68h2.85l-8.2,5.52,2.17,6.53v6l-2.17-5.86L303.93,211l-2.51-2.17-3-3.52L297.07,209l-6.37-5.11-2.34,2.76-4.19-6.87-6.7-6.86,2.35,6.53.5,4.44h-4.69v3.77l11.22,8-5.36,1.18,13.73,10.38-13.06-3.35,8.71,7.2L274,229.94l19.42,9.55-15.74-1.85.67,1.85s7.87,6.19,7.37,6.19h-7l-.83,3.69,4,.83.16,5,16.42,8.87,48.9-33.32L355.85,197Z"/><path class="cls-8" d="M194.57,206.33l17.08-4.69,4.69-7.37,16.25-6.2,3.18-9.55-4,2,2.35-12.86L249,178l-3.35,5.86,24.29-16.21,9-9.41h-5l3.85-3-2.68-3.69,3.35-7.87,22.1,22.94,3.69-.83,7,11.22-10.55,6.53L302.09,170l-7,5.86-3.85,3.52h-2.68l-3.35,2.85a33.48,33.48,0,0,0-1.34,3.85,21.76,21.76,0,0,1-1.51,3.35l1.34,3.35,3.18,2.68,3.18-2-3.68,6L277,191.59l-4.86,6.7-5.19.16-5.69,6.7-3.52-1.25L242,222.24l-14.24,11.55-6.53-5.69Z"/></g><rect class="cls-9" x="193.36" y="30.32" width="165.34" height="230.43" rx="82.67"/><path class="cls-10" d="M205.88,68.85h4.93V65.11h5.61l.86-4.94h5.27l3.07-4.6h5.44l3.07,2.9,1.19-7.66,4.25-2.21L244.51,51s.68,2.72,1.53,3.57,9.7,1,9.7,1,5.45-2.55,5.45-.17v8.34l9.87,2.39S291.15,70,292.85,70,309,73.62,309.7,73.62s3.4,1,1.53,1.7S293,77.53,288.08,77.53s-17.7-1-17.7-1l20.6,2s8.85.51,5.95,1.88-8.16,1-18.71-.9-29.83-.86-41.75-1.27-26.8.38-27.31.38-9.2,1.83-9.2,1.83l2.59-5.73Z"/><path class="cls-10" d="M219.81,68.1h3.71V65.38h4.09l.62-3.59h3.84l2.23-3.35h4l2.23,2.11.87-5.58,3.1-1.61,3.59,1.74a7.84,7.84,0,0,0,1.11,2.6c.62.62,7.07.74,7.07.74s4-1.86,4-.12v6.07l7.18,1.73S282,69,283.23,69s11.77,2.6,12.26,2.6,2.48.74,1.12,1.24-13.26,1.61-16.85,1.61-12.88-.74-12.88-.74l15,1.48s6.44.38,4.33,1.37-5.45.07-13.13-1.3-21.22-1.46-29.89-1.76S222.68,73,222.3,73s-13.14-1.47-13.14-1.47Z"/><path class="cls-10" d="M219.05,104.58h3.63v-2.76h4.14l.63-3.63h3.89l2.25-3.39h4l2.25,2.13.88-5.64,3.14-1.63,3.63,1.75a8,8,0,0,0,1.13,2.64c.63.62,7.15.75,7.15.75s4-1.88,4-.13v6.15l7.28,1.75s14.8,2.89,16.05,2.89,11.91,2.63,12.41,2.63,2.51.76,1.13,1.26S283.25,111,279.62,111s-13-.76-13-.76l15.17,1.51s6.52.38,4.39,1.38-6,.72-13.79-.66-22-.63-30.76-.94-19.75.28-20.12.28-6.78,1.35-6.78,1.35l1.91-4.22Z"/><path class="cls-10" d="M229.31,104h2.74v-2h3l.46-2.64h2.83L240,96.91h2.92l1.64,1.55.64-4.1,2.28-1.19,2.65,1.28a5.87,5.87,0,0,0,.82,1.91c.46.46,5.21.55,5.21.55s2.92-1.37,2.92-.09v4.47l5.29,1.28s10.77,2.1,11.68,2.1,8.67,1.92,9,1.92,1.82.54.82.91a99.79,99.79,0,0,1-12.41,1.19c-2.65,0-9.5-.55-9.5-.55L275,109.23s4.74.28,3.19,1-4,.05-9.67-1-15.64-1.07-22-1.3-15.1-.37-15.38-.37-9.68-1.08-9.68-1.08Z"/><path class="cls-2" d="M419,55.55c8.45-8.44,2.15-16.12,2.15-16.12h0c-.18-.16-7.32-6.7-16.19,1.09L381.6,63l-26-1.7,1.26-4.86s-6,.46-7.46,4.46L331.66,59.7l.41-6.2s-5.82-1.06-7,5L302.5,57,298,61.59l44.63,12.64,14.55,13-31.52,35.38-27.26-3.14L294,123.76l24.28,12.08,10.5,25.08,4.59-4.17L332,129.34l37.36-29.15,12,15.36,9.7,45.37,4.85-4.17V134.11c6.13-.77,5.45-6.64,5.45-6.64h-6.21V109.68c4.08-1.19,4.93-7.15,4.93-7.15l-4.93.94v-26Z"/><path class="cls-11" d="M264.5,179.79q-2.25,1.4-4.55,2.77c-19.73,11.78-39.06,20.56-55.29,25.64h0c-21.25,6.65-37.17,7-41.71-.63-5.29-6-1.57-18.9,8.67-34.78V122.66c-44.59,47.2-65.66,96.12-47.68,116.53,21,23.81,87.13-.18,147.75-53.59a340.4,340.4,0,0,0,46.73-49.94C307.2,149.23,288.08,165.19,264.5,179.79Z"/><path class="cls-12" d="M260,182.56c-19.73,11.78-39.06,20.56-55.29,25.64h0c-21.25,6.65-37.17,7-41.71-.63-5.29-6-1.57-18.9,8.67-34.78V136.06c-35.72,40-52.53,78.94-38.41,95,17.53,19.9,120.67-19.88,185.05-95.19C294,161.15,261.48,181.64,260,182.56Z"/><polyline class="cls-13" points="171.6 172.8 171.6 152.63 171.6 136.06 171.6 122.66"/><path class="cls-14" d="M162.93,207.58c-5.29-6-1.57-18.9,8.67-34.78V152.63c-23.71,29.12-37.14,58.3-25,65.91,23.34,14.64,123.77-25.86,171.66-82.7C268.3,190.64,167.47,215.17,162.93,207.58Z"/><path class="cls-5" d="M217.55,316.41v51.8H195.1l-32.81-30.76v30.76h-19v-51.8H164l34.54,32.38V316.41Z"/><path class="cls-5" d="M290.29,355.26v12.95H226.4v-51.8h63.89v12.95h-44.9v6.48h41.45v13H245.39v6.47Z"/><path class="cls-5" d="M400.8,316.41l-20.72,51.8H359.36L347.27,338l-12.09,30.22H314.46l-20.72-51.8h20.72l12.35,30.87,12.34-30.87h16.24l12.34,30.87,12.35-30.87Z"/><path class="cls-5" d="M69.07,442.08c0,21.58-15.54,27.34-34.5,27.34S0,463.66,0,442.08H19c0,11.51,6.91,14.39,15.58,14.39s15.51-2.88,15.51-14.39v-25.9h19Z"/><path class="cls-5" d="M114.57,469.42c-24.22,0-39.76-5.76-39.76-27.34,0-20.15,13.82-27.34,39.76-27.34s39.68,7.19,39.68,27.34C154.25,463.66,140.43,469.42,114.57,469.42Zm0-41.73c-12.13,0-19,2.87-19,14.39s6.91,14.39,19,14.39,19-2.88,19-14.39S126.83,427.69,114.57,427.69Z"/><path class="cls-5" d="M160.06,416.18h19v25.9c0,11.51,6.9,14.39,17.3,14.39s17.23-2.88,17.23-14.39v-25.9h19v25.9c0,21.58-15.55,27.34-36.23,27.34s-36.3-5.76-36.3-27.34Z"/><path class="cls-5" d="M282.3,455H259.42v13h-19v-51.8h47.49c12.86,0,23.31,8.71,23.31,19.42,0,6.52-3.87,12.3-9.81,15.83L311.89,468H290.5Zm-22.88-12.95h25c4.28,0,7.77-2.91,7.77-6.48s-3.49-6.47-7.77-6.47h-25Z"/><path class="cls-5" d="M392.6,416.18V468H370.15l-32.81-30.76V468h-19v-51.8h20.72l34.53,32.37V416.18Z"/><path class="cls-5" d="M465.34,455v13H401.45v-51.8h63.89v12.95h-44.9v6.47h41.44v12.95H420.44V455Z"/><path class="cls-5" d="M515.61,449.05V468h-19V449.05l-28.49-32.87h22.45l15.54,17.93,15.54-17.93H544.1Z"/><path class="cls-15" d="M86.21,383.78v15.37H84.67V383.78Z"/><path class="cls-15" d="M113.53,384v15.18H112V387l-5.41,12.12h-1.12L100,387.08v12.07H98.5V384h1.63L106,397.13,111.88,384Z"/><path class="cls-15" d="M140.85,384v15.18h-1.54V387l-5.41,12.12h-1.12l-5.41-12.07v12.07h-1.54V384h1.63l5.87,13.16L139.2,384Z"/><path class="cls-15" d="M154.69,383.78v15.37h-1.54V383.78Z"/><path class="cls-15" d="M179.09,388.26a5.26,5.26,0,0,0-2-2.38,5.79,5.79,0,0,0-3.18-.87,6,6,0,0,0-3.08.79,5.71,5.71,0,0,0-2.16,2.25,7.73,7.73,0,0,0,0,6.81,5.63,5.63,0,0,0,2.16,2.27,6.4,6.4,0,0,0,6,.1,5.32,5.32,0,0,0,2.07-2,6.48,6.48,0,0,0,.89-3h-6.47V391h8.1v1.12a7.92,7.92,0,0,1-1.1,3.67,7.28,7.28,0,0,1-2.65,2.58,7.42,7.42,0,0,1-3.73.95,7.64,7.64,0,0,1-3.87-1,7.16,7.16,0,0,1-2.74-2.8,8.74,8.74,0,0,1,0-8.12A7.2,7.2,0,0,1,170,384.6a8.08,8.08,0,0,1,8.18.23,7,7,0,0,1,2.68,3.43Z"/><path class="cls-15" d="M201.18,399.15l-3.81-6.42h-2.84v6.42H193V383.78h4.62a5.57,5.57,0,0,1,3.91,1.23,4.19,4.19,0,0,1,1.33,3.23,4.35,4.35,0,0,1-1,2.85,4.64,4.64,0,0,1-2.82,1.53l4,6.53Zm-6.65-7.67h3.11a3.79,3.79,0,0,0,2.71-.88,3.14,3.14,0,0,0,.92-2.36,3.08,3.08,0,0,0-.88-2.34,4,4,0,0,0-2.78-.83h-3.08Z"/><path class="cls-15" d="M223.62,395.5h-7l-1.34,3.65h-1.63L219.26,384H221l5.59,15.18H225Zm-.47-1.27-3-8.32-3,8.32Z"/><path class="cls-15" d="M246.85,383.78v1.27h-4.27v14.1H241v-14.1h-4.29v-1.27Z"/><path class="cls-15" d="M259.63,383.78v15.37h-1.54V383.78Z"/><path class="cls-15" d="M275,398.31a7.3,7.3,0,0,1-2.74-2.8,8.74,8.74,0,0,1,0-8.12A7.34,7.34,0,0,1,275,384.6a8,8,0,0,1,7.77,0,7.18,7.18,0,0,1,2.73,2.79,8.82,8.82,0,0,1,0,8.12,7.14,7.14,0,0,1-2.73,2.8,8,8,0,0,1-7.77,0Zm7-1.14a5.55,5.55,0,0,0,2.15-2.27,7.2,7.2,0,0,0,.79-3.45,7.12,7.12,0,0,0-.79-3.43,5.68,5.68,0,0,0-2.15-2.27,6.4,6.4,0,0,0-6.16,0A5.7,5.7,0,0,0,273.6,388a7.12,7.12,0,0,0-.79,3.43,7.2,7.2,0,0,0,.79,3.45,5.57,5.57,0,0,0,2.16,2.27,6.4,6.4,0,0,0,6.16,0Z"/><path class="cls-15" d="M309.66,399.15h-1.54l-8.52-12.93v12.93h-1.54V383.78h1.54l8.52,12.91V383.78h1.54Z"/><path class="cls-15" d="M348.49,399.15,346.4,397a7.38,7.38,0,0,1-2.4,1.81,6.83,6.83,0,0,1-2.88.59,6.09,6.09,0,0,1-2.73-.59,4.39,4.39,0,0,1-1.85-1.63,4.84,4.84,0,0,1,.27-5.29,6,6,0,0,1,2.7-1.89,6.88,6.88,0,0,1-1.12-1.59,3.57,3.57,0,0,1-.35-1.6,3,3,0,0,1,1-2.38,4.18,4.18,0,0,1,2.82-.92,3.82,3.82,0,0,1,2.68,1,3,3,0,0,1,1,2.46H344a2,2,0,0,0-.6-1.56,2.27,2.27,0,0,0-1.58-.57,2.4,2.4,0,0,0-1.64.56,1.85,1.85,0,0,0-.62,1.44,2.75,2.75,0,0,0,.38,1.37,10,10,0,0,0,1.22,1.56l5.06,5.12a14.79,14.79,0,0,0,.84-1.32l1.41-2.35h1.65l-1.67,2.88c-.4.69-.8,1.31-1.19,1.85l3.21,3.23Zm-5.05-1.58a6.5,6.5,0,0,0,1.95-1.58l-4.91-5q-3.06,1.13-3.06,3.7a3.28,3.28,0,0,0,.47,1.73,3.53,3.53,0,0,0,1.31,1.2,4.12,4.12,0,0,0,1.92.44A5.14,5.14,0,0,0,343.44,397.57Z"/><path class="cls-15" d="M391.25,384v15.18h-1.54V387l-5.41,12.12h-1.12l-5.41-12.07v12.07h-1.54V384h1.63l5.87,13.16L389.6,384Z"/><path class="cls-15" d="M406.59,398.31a7.23,7.23,0,0,1-2.74-2.8,8.74,8.74,0,0,1,0-8.12,7.27,7.27,0,0,1,2.74-2.79,8,8,0,0,1,7.76,0,7.18,7.18,0,0,1,2.73,2.79,8.82,8.82,0,0,1,0,8.12,7.14,7.14,0,0,1-2.73,2.8,8,8,0,0,1-7.76,0Zm7-1.14a5.57,5.57,0,0,0,2.16-2.27,7.32,7.32,0,0,0,.79-3.45,7.23,7.23,0,0,0-.79-3.43,5.7,5.7,0,0,0-2.16-2.27,6.4,6.4,0,0,0-6.16,0,5.7,5.7,0,0,0-2.16,2.27,7.23,7.23,0,0,0-.79,3.43,7.32,7.32,0,0,0,.79,3.45,5.57,5.57,0,0,0,2.16,2.27,6.4,6.4,0,0,0,6.16,0Z"/><path class="cls-15" d="M437.87,399.15l-3.8-6.42h-2.84v6.42h-1.54V383.78h4.62a5.55,5.55,0,0,1,3.9,1.23,4.19,4.19,0,0,1,1.33,3.23,4.34,4.34,0,0,1-1,2.85,4.63,4.63,0,0,1-2.83,1.53l4,6.53Zm-6.64-7.67h3.1a3.82,3.82,0,0,0,2.72-.88,3.13,3.13,0,0,0,.91-2.36,3,3,0,0,0-.88-2.34,4,4,0,0,0-2.77-.83h-3.08Z"/><path class="cls-15" d="M452.94,385v5.74h5.83v1.28h-5.83v5.83h6.49v1.27h-8v-15.4h8V385Z"/></g></g></svg>