<svg xmlns="http://www.w3.org/2000/svg" xmlns:xlink="http://www.w3.org/1999/xlink" viewBox="0 0 626 179.54"><defs><style>.cls-1,.cls-4{fill:#ffa700;}.cls-1,.cls-8{stroke:#aec1db;stroke-width:3px;}.cls-1,.cls-6,.cls-7,.cls-8{stroke-miterlimit:10;}.cls-2{fill:#aec1db;}.cls-3,.cls-6{fill:#0b274e;}.cls-5{clip-path:url(#clip-path);}.cls-6,.cls-7{stroke:#0b274e;stroke-width:2px;}.cls-7{fill:#427faf;}.cls-12,.cls-8{fill:none;}.cls-14,.cls-9{fill:#fff;}.cls-9{opacity:0.5;}.cls-10{fill:#fba708;}.cls-11{fill:#062346;}.cls-13{fill:#437eb0;}</style><clipPath id="clip-path"><rect class="cls-1" x="46.79" y="18.7" width="101.99" height="142.13" rx="50.99"/></clipPath></defs><g id="Layer_2" data-name="Layer 2"><g id="Layer_1-2" data-name="Layer 1"><rect class="cls-2" x="33.37" width="128.83" height="179.54" rx="64.41"/><rect class="cls-3" x="38.08" y="6.57" width="119.4" height="166.4" rx="59.7"/><rect class="cls-1" x="45.95" y="17.54" width="103.65" height="144.46" rx="51.83"/><rect class="cls-4" x="46.79" y="18.7" width="101.99" height="142.13" rx="50.99"/><g class="cls-5"><polygon class="cls-6" points="51.77 119.21 55.08 120.04 55.08 117.66 57.76 117.66 58.59 119.62 63.86 112.19 65.92 112.19 72.85 102.06 81.11 109.81 85.86 102.99 87.72 104.44 90.3 97.52 92.06 97.52 99.29 88.63 112.93 102.78 115.2 102.27 119.54 109.19 126.67 104.33 142.57 124.48 139.27 142.56 104.66 162.91 57.14 152.68 48.36 120.66 51.77 119.21"/><path class="cls-7" d="M128.33,106.44l-3.21,1.82-.93,2.58L123,112.08l.72,1.86-3.92,3.31v1.24L124,119l-3.78,2.9v1.65H122L117,127l1.34,4v3.72L117,131.09l-2-.93-1.55-1.34-1.86-2.17-.82,2.27-3.93-3.15-1.44,1.7-2.59-4.23L98.67,119l1.45,4,.31,2.74H97.54v2.32l6.92,5-3.31.73,8.47,6.4-8.06-2.07,5.38,4.45-10.44-.73,12,5.89-9.72-1.14.42,1.14s4.85,3.82,4.54,3.82H99.39l-.51,2.28,2.48.51.1,3.1,10.12,5.48,30.17-20.56L147,121.48Z"/><path class="cls-7" d="M47.54,127.27l10.53-2.9,2.9-4.54L71,116l2-5.89-2.48,1.24,1.45-7.94,9.19,6.39L79,113.42l15-10,5.58-5.8H96.5l2.38-1.86-1.65-2.27,2.06-4.86,13.64,14.15,2.27-.51,4.34,6.92-6.51,4,.83-8.37-4.34,3.62-2.38,2.17h-1.65l-2.07,1.75a20.78,20.78,0,0,0-.82,2.38,13.26,13.26,0,0,1-.93,2.06l.82,2.07,2,1.65,2-1.24L104.15,123l-5.79-4.85-3,4.13-3.21.1-3.51,4.13-2.17-.77-9.71,11.31L68,144.21l-4-3.51Z"/></g><rect class="cls-8" x="46.79" y="18.7" width="101.99" height="142.13" rx="50.99"/><path class="cls-9" d="M54.51,42.47h3V40.16H61l.52-3h3.25l1.89-2.83H70l1.89,1.78.74-4.72L75.29,30l3,1.47a6.79,6.79,0,0,0,.94,2.2c.53.52,6,.63,6,.63s3.36-1.58,3.36-.11v5.15l6.09,1.47s12.39,2.41,13.44,2.41,10,2.21,10.39,2.21,2.1.63,1,1.05-11.24,1.36-14.28,1.36-10.92-.63-10.92-.63L107,48.45s5.46.32,3.68,1.16-5,.6-11.55-.55-18.4-.53-25.75-.79-16.53.24-16.85.24-5.67,1.12-5.67,1.12l1.6-3.53Z"/><path class="cls-9" d="M63.1,42h2.29V40.33h2.52l.39-2.22h2.37L72,36.05h2.45l1.37,1.3.54-3.44,1.91-1L80.52,34a4.93,4.93,0,0,0,.69,1.61c.38.38,4.36.46,4.36.46S88,34.9,88,36v3.75l4.43,1.07s9,1.75,9.78,1.75,7.26,1.61,7.57,1.61,1.53.46.69.76a82.3,82.3,0,0,1-10.4,1c-2.21,0-7.94-.45-7.94-.45l9.24.91s4,.23,2.68.84-3.37,0-8.1-.79-13.09-.9-18.44-1.09S64.87,45,64.64,45s-8.11-.9-8.11-.9Z"/><path class="cls-9" d="M62.64,64.51h2.24v-1.7h2.55l.38-2.25h2.4l1.4-2.08h2.47l1.39,1.31L76,56.31l1.94-1,2.24,1.09a4.91,4.91,0,0,0,.7,1.62c.38.39,4.41.47,4.41.47s2.47-1.17,2.47-.08v3.79l4.49,1.08s9.13,1.78,9.9,1.78,7.35,1.62,7.66,1.62,1.55.47.7.78a84.06,84.06,0,0,1-10.53,1c-2.24,0-8-.46-8-.46l9.36.93s4,.23,2.71.85-3.71.44-8.51-.41S82,69,76.54,68.78,64.36,69,64.12,69s-4.17.83-4.17.83l1.17-2.6Z"/><path class="cls-9" d="M69,64.17h1.69V62.93h1.86l.28-1.63h1.75l1-1.52h1.8l1,.95.39-2.53,1.41-.73,1.63.79a3.63,3.63,0,0,0,.51,1.18,13.93,13.93,0,0,0,3.21.34s1.8-.85,1.8-.06v2.76l3.26.79s6.65,1.29,7.21,1.29,5.35,1.19,5.57,1.19,1.13.33.51.56a62,62,0,0,1-7.66.73c-1.63,0-5.85-.34-5.85-.34l6.81.68s2.93.17,2,.62-2.48,0-6-.59-9.64-.66-13.58-.8-9.32-.24-9.49-.24-6-.66-6-.66Z"/><path class="cls-2" d="M186,34.27c5.21-5.21,1.32-10,1.32-10h0c-.11-.1-4.51-4.13-10,.67L162.9,38.84l-16-1.05.77-3s-3.7.28-4.59,2.75l-11-.72.25-3.82A3.66,3.66,0,0,0,128,36.09l-13.93-.91L111.35,38l27.53,7.8,9,8L128.4,75.62l-16.81-1.94-2.75,2.66,15,7.45,6.47,15.47,2.84-2.57-.84-16.91,23-18,7.4,9.48,6,28,3-2.57v-14a3.66,3.66,0,0,0,3.36-4.09h-3.83v-11c2.52-.73,3-4.4,3-4.4l-3,.57V47.76Z"/><path class="cls-10" d="M90.67,110.9l-2.81,1.71c-12.17,7.26-24.09,12.68-34.1,15.81a0,0,0,0,0,0,0c-13.11,4.1-22.93,4.29-25.73-.39-3.26-3.7-1-11.66,5.35-21.45V75.66C5.86,104.77-7.13,135,4,147.54c12.93,14.68,53.74-.11,91.13-33.06a209.79,209.79,0,0,0,28.83-30.8C117,92.05,105.21,101.89,90.67,110.9Z"/><path class="cls-11" d="M87.86,112.61c-12.17,7.26-24.09,12.68-34.1,15.81a0,0,0,0,0,0,0c-13.11,4.1-22.93,4.29-25.73-.39-3.26-3.7-1-11.66,5.35-21.45V83.92c-22,24.67-32.41,48.7-23.7,58.58,10.82,12.28,74.43-12.26,114.15-58.71C108.84,99.4,88.81,112,87.86,112.61Z"/><polyline class="cls-12" points="33.37 106.59 33.37 94.14 33.37 83.92 33.37 75.66"/><path class="cls-13" d="M28,128c-3.26-3.7-1-11.66,5.35-21.45V94.15c-14.63,18-22.92,36-15.44,40.65,14.4,9,76.35-16,105.89-51C93,117.59,30.82,132.72,28,128Z"/><path class="cls-4" d="M363,28.16V69.88H345L318.53,45.11V69.88h-15.3V28.16h16.69l27.81,26.07V28.16Z"/><path class="cls-4" d="M421.61,59.45V69.88H370.15V28.16h51.46V38.59H385.45V43.8h33.37V54.23H385.45v5.22Z"/><path class="cls-4" d="M510.6,28.16,493.91,69.88H477.22l-9.73-24.34-9.73,24.34H441.07L424.38,28.16h16.69L451,53,461,28.16H474L484,53l9.94-24.86Z"/><path class="cls-4" d="M243.46,129.36c0,17.38-12.52,22-27.79,22s-27.84-4.64-27.84-22h15.3c0,9.27,5.56,11.59,12.54,11.59s12.49-2.32,12.49-11.59V108.5h15.3Z"/><path class="cls-4" d="M280.1,151.38c-19.5,0-32-4.64-32-22,0-16.22,11.13-22,32-22s31.95,5.8,31.95,22C312.05,146.74,300.92,151.38,280.1,151.38Zm0-33.61c-9.77,0-15.33,2.32-15.33,11.59S270.33,141,280.1,141s15.26-2.32,15.26-11.59S290,117.77,280.1,117.77Z"/><path class="cls-4" d="M316.73,108.5H332v20.86C332,138.63,337.59,141,346,141s13.88-2.32,13.88-11.59V108.5h15.3v20.86c0,17.38-12.52,22-29.18,22s-29.23-4.64-29.23-22Z"/><path class="cls-4" d="M415.17,139.79H396.74v10.43H381.45V108.5h38.24c10.35,0,18.77,7,18.77,15.64,0,5.26-3.12,9.91-7.9,12.75L439,150.22H421.77Zm-18.43-10.43h20.17c3.45,0,6.26-2.34,6.26-5.22s-2.81-5.21-6.26-5.21H396.74Z"/><path class="cls-4" d="M504,108.5v41.72H485.92l-26.43-24.77v24.77H444.2V108.5h16.69l27.81,26.07V108.5Z"/><path class="cls-4" d="M562.57,139.79v10.43H511.12V108.5h51.45v10.43H526.42v5.21h33.37v10.43H526.42v5.22Z"/><path class="cls-4" d="M603.05,135v15.25H587.76V135l-23-26.47h18.08l12.51,14.44,12.52-14.44H626Z"/><path class="cls-14" d="M257.26,82.41V94.79H256V82.41Z"/><path class="cls-14" d="M279.26,82.57V94.79H278V85l-4.36,9.76h-.9l-4.36-9.72v9.72h-1.24V82.57h1.31l4.73,10.59,4.73-10.59Z"/><path class="cls-14" d="M301.26,82.57V94.79H300V85l-4.36,9.76h-.9l-4.36-9.72v9.72h-1.24V82.57h1.31l4.73,10.59,4.73-10.59Z"/><path class="cls-14" d="M312.41,82.41V94.79h-1.24V82.41Z"/><path class="cls-14" d="M332.06,86a4.31,4.31,0,0,0-1.63-1.92,4.59,4.59,0,0,0-2.56-.7,4.82,4.82,0,0,0-2.48.64,4.51,4.51,0,0,0-1.73,1.81,6.21,6.21,0,0,0,0,5.49,4.47,4.47,0,0,0,1.73,1.82,5.13,5.13,0,0,0,4.81.08,4.32,4.32,0,0,0,1.67-1.59,5.25,5.25,0,0,0,.72-2.42h-5.21v-1h6.52v.9a6.29,6.29,0,0,1-.89,2.95,5.74,5.74,0,0,1-2.13,2.08,6,6,0,0,1-3,.77,6.09,6.09,0,0,1-3.11-.81,5.83,5.83,0,0,1-2.21-2.25,7,7,0,0,1,0-6.54,5.83,5.83,0,0,1,2.21-2.25,6.53,6.53,0,0,1,6.59.19A5.63,5.63,0,0,1,333.51,86Z"/><path class="cls-14" d="M349.84,94.79l-3.06-5.17h-2.29v5.17h-1.24V82.41H347a4.51,4.51,0,0,1,3.15,1A3.4,3.4,0,0,1,351.19,86a3.54,3.54,0,0,1-.77,2.29,3.71,3.71,0,0,1-2.28,1.23l3.19,5.26Zm-5.35-6.18H347a3.05,3.05,0,0,0,2.19-.71,2.49,2.49,0,0,0,.73-1.89,2.43,2.43,0,0,0-.71-1.89,3.18,3.18,0,0,0-2.23-.67h-2.48Z"/><path class="cls-14" d="M367.91,91.85h-5.63l-1.08,2.94h-1.31l4.51-12.22h1.4l4.5,12.22H369Zm-.37-1-2.44-6.69-2.45,6.69Z"/><path class="cls-14" d="M386.62,82.41v1h-3.44V94.79h-1.24V83.44h-3.45v-1Z"/><path class="cls-14" d="M396.91,82.41V94.79h-1.24V82.41Z"/><path class="cls-14" d="M409.26,94.11a5.8,5.8,0,0,1-2.2-2.25,7,7,0,0,1,0-6.54,5.8,5.8,0,0,1,2.2-2.25,6.52,6.52,0,0,1,6.26,0,5.78,5.78,0,0,1,2.19,2.25,7.08,7.08,0,0,1,0,6.54,5.78,5.78,0,0,1-2.19,2.25,6.45,6.45,0,0,1-6.26,0Zm5.6-.91a4.61,4.61,0,0,0,1.74-1.84,6.29,6.29,0,0,0,0-5.53A4.65,4.65,0,0,0,414.86,84a5.2,5.2,0,0,0-5,0,4.65,4.65,0,0,0-1.74,1.83,6.38,6.38,0,0,0,0,5.53,4.61,4.61,0,0,0,1.74,1.84,5.13,5.13,0,0,0,5,0Z"/><path class="cls-14" d="M437.2,94.79H436L429.1,84.38V94.79h-1.24V82.41h1.24L436,92.81V82.41h1.24Z"/><path class="cls-14" d="M468.47,94.79l-1.68-1.72a6.05,6.05,0,0,1-1.93,1.47,5.59,5.59,0,0,1-2.32.46,5,5,0,0,1-2.2-.46A3.77,3.77,0,0,1,459.06,89a4.91,4.91,0,0,1,2.18-1.52,5.82,5.82,0,0,1-.9-1.28,3,3,0,0,1-.28-1.29,2.41,2.41,0,0,1,.85-1.92,3.32,3.32,0,0,1,2.26-.74,3.1,3.1,0,0,1,2.17.77,2.39,2.39,0,0,1,.77,2h-1.24a1.57,1.57,0,0,0-.48-1.26,1.8,1.8,0,0,0-1.27-.46,1.92,1.92,0,0,0-1.32.45,1.47,1.47,0,0,0-.5,1.16,2.11,2.11,0,0,0,.31,1.1,6.8,6.8,0,0,0,1,1.26l4.07,4.13c.17-.23.39-.58.68-1.07l1.13-1.89h1.33l-1.35,2.32a16.12,16.12,0,0,1-.95,1.49l2.58,2.6Zm-4.06-1.27A5,5,0,0,0,466,92.24l-4-4q-2.46.9-2.46,3a2.59,2.59,0,0,0,.38,1.39,2.73,2.73,0,0,0,1.05,1,3.25,3.25,0,0,0,1.55.35A4.21,4.21,0,0,0,464.41,93.52Z"/><path class="cls-14" d="M502.91,82.57V94.79h-1.24V85l-4.36,9.76h-.9l-4.36-9.72v9.72h-1.24V82.57h1.31l4.73,10.59,4.73-10.59Z"/><path class="cls-14" d="M515.26,94.11a5.9,5.9,0,0,1-2.21-2.25,7.08,7.08,0,0,1,0-6.54,5.9,5.9,0,0,1,2.21-2.25,6.5,6.5,0,0,1,6.25,0,5.74,5.74,0,0,1,2.2,2.25,7.08,7.08,0,0,1,0,6.54,5.74,5.74,0,0,1-2.2,2.25,6.43,6.43,0,0,1-6.25,0Zm5.6-.91a4.61,4.61,0,0,0,1.74-1.84,6.38,6.38,0,0,0,0-5.53A4.65,4.65,0,0,0,520.86,84a5.2,5.2,0,0,0-5,0,4.65,4.65,0,0,0-1.74,1.83,6.29,6.29,0,0,0,0,5.53,4.61,4.61,0,0,0,1.74,1.84,5.13,5.13,0,0,0,5,0Z"/><path class="cls-14" d="M540.45,94.79l-3.06-5.17H535.1v5.17h-1.24V82.41h3.72a4.51,4.51,0,0,1,3.15,1A3.4,3.4,0,0,1,541.8,86,3.54,3.54,0,0,1,541,88.3a3.68,3.68,0,0,1-2.28,1.23l3.19,5.26Zm-5.35-6.18h2.5a3.05,3.05,0,0,0,2.19-.71,2.49,2.49,0,0,0,.73-1.89,2.46,2.46,0,0,0-.7-1.89,3.22,3.22,0,0,0-2.24-.67H535.1Z"/><path class="cls-14" d="M552.59,83.42V88h4.69v1h-4.69v4.69h5.23v1h-6.47V82.39h6.47v1Z"/></g></g></svg>