<?xml version="1.0" encoding="UTF-8"?>
<svg width="200" height="80" viewBox="0 0 200 80" fill="none" xmlns="http://www.w3.org/2000/svg">
  <path d="M40 30C40 24.477 44.477 20 50 20H60C65.523 20 70 24.477 70 30V50C70 55.523 65.523 60 60 60H50C44.477 60 40 55.523 40 50V30Z" fill="#FFFFFF"/>
  <path d="M50 30H60V40H50V30Z" fill="#13294E"/>
  <path d="M80 30C80 24.477 84.477 20 90 20H100C105.523 20 110 24.477 110 30V50C110 55.523 105.523 60 100 60H90C84.477 60 80 55.523 80 50V30Z" fill="#FFFFFF"/>
  <path d="M90 30H100V40H90V30Z" fill="#13294E"/>
  <path d="M120 30C120 24.477 124.477 20 130 20H140C145.523 20 150 24.477 150 30V50C150 55.523 145.523 60 140 60H130C124.477 60 120 55.523 120 50V30Z" fill="#FFFFFF"/>
  <path d="M130 30H140V40H130V30Z" fill="#13294E"/>
  <path d="M160 20H170V60H160V20Z" fill="#FFFFFF"/>
</svg>
